<?xml version="1.0" standalone="no"?>
<!DOCTYPE svg PUBLIC "-//W3C//DTD SVG 20010904//EN"
 "http://www.w3.org/TR/2001/REC-SVG-20010904/DTD/svg10.dtd">
<svg version="1.0" xmlns="http://www.w3.org/2000/svg"
 width="512.000000pt" height="512.000000pt" viewBox="0 0 512.000000 512.000000"
 preserveAspectRatio="xMidYMid meet">

<g transform="translate(0.000000,512.000000) scale(0.100000,-0.100000)"
fill="#000000" stroke="none">
<path d="M1095 4524 c-287 -34 -448 -94 -580 -216 -105 -96 -186 -267 -220
-463 -26 -149 -31 -432 -25 -1515 6 -1071 5 -1051 75 -1247 95 -265 278 -405
618 -470 86 -17 196 -18 1597 -18 1411 0 1511 1 1600 18 336 64 521 205 615
470 66 185 68 215 73 894 3 558 2 615 -14 648 -24 51 -67 78 -133 83 -66 4
-111 -20 -145 -78 -20 -34 -21 -53 -27 -645 -7 -647 -9 -674 -58 -805 -58
-155 -167 -223 -411 -255 -155 -21 -2845 -21 -3000 0 -245 33 -353 99 -411
254 -53 141 -52 130 -56 1084 l-4 887 1169 0 1169 0 33 23 c48 32 72 69 77
119 7 58 -23 118 -74 149 l-38 24 -1169 3 -1169 2 6 133 c16 350 94 496 297
558 136 41 150 42 1105 48 l930 6 38 24 c51 31 81 91 74 149 -5 50 -29 87 -77
120 l-33 22 -901 -1 c-496 -1 -914 -4 -931 -5z"/>
<path d="M4032 4513 c-18 -9 -43 -30 -55 -47 -21 -30 -22 -42 -25 -273 l-3
-242 -237 -3 c-218 -3 -240 -5 -272 -24 -101 -59 -104 -195 -6 -268 25 -20 45
-21 269 -26 l242 -5 5 -242 c5 -224 6 -244 26 -269 72 -98 204 -96 265 3 23
37 24 46 27 276 l3 237 231 0 c191 0 236 3 264 16 50 24 77 68 82 133 5 70
-22 115 -88 149 -42 21 -56 22 -266 22 l-223 0 -3 233 c-3 213 -5 235 -24 267
-43 74 -134 102 -212 63z"/>
<path d="M1215 1746 c-94 -41 -124 -168 -58 -247 47 -55 68 -59 338 -59 225 0
249 2 284 20 113 57 113 223 0 280 -35 18 -59 20 -286 20 -184 -1 -256 -4
-278 -14z"/>
<path d="M2175 1746 c-67 -29 -105 -106 -91 -181 9 -47 59 -102 104 -115 25
-8 192 -10 499 -8 450 3 462 4 490 24 98 73 98 195 0 268 -28 21 -39 21 -500
23 -377 2 -478 0 -502 -11z"/>
</g>
</svg>
