<?xml version="1.0" standalone="no"?>
<!DOCTYPE svg PUBLIC "-//W3C//DTD SVG 20010904//EN"
 "http://www.w3.org/TR/2001/REC-SVG-20010904/DTD/svg10.dtd">
<svg version="1.0" xmlns="http://www.w3.org/2000/svg"
 width="512.000000pt" height="512.000000pt" viewBox="0 0 512.000000 512.000000"
 preserveAspectRatio="xMidYMid meet">

<g transform="translate(0.000000,512.000000) scale(0.100000,-0.100000)"
fill="#000000" stroke="none">
<path d="M2370 5113 c-468 -44 -863 -180 -1220 -419 -385 -257 -682 -596 -886
-1009 -126 -258 -203 -511 -246 -810 -17 -118 -17 -512 0 -630 42 -295 120
-553 242 -800 137 -280 272 -468 494 -691 221 -220 412 -357 681 -489 188 -92
309 -137 500 -185 196 -49 343 -70 545 -77 411 -14 803 68 1175 246 282 136
484 279 711 505 217 218 355 408 488 677 354 712 354 1546 0 2258 -133 269
-271 459 -488 677 -226 225 -427 368 -711 505 -274 132 -558 210 -870 239
-102 9 -333 11 -415 3z m428 -434 c572 -63 1114 -372 1462 -834 284 -377 430
-814 430 -1285 0 -574 -218 -1098 -625 -1505 -297 -298 -664 -498 -1063 -580
-162 -34 -273 -45 -444 -45 -571 0 -1097 218 -1503 625 -131 130 -245 276
-332 422 -363 617 -392 1374 -78 2018 314 642 932 1087 1640 1180 125 16 385
18 513 4z"/>
<path d="M2860 2745 c-338 -332 -618 -604 -621 -605 -5 0 -218 204 -530 508
l-67 64 -143 -147 c-79 -81 -145 -150 -147 -155 -5 -13 622 -614 669 -642 74
-43 151 -61 243 -56 112 7 178 35 267 113 41 35 337 325 659 644 l585 580
-150 150 -150 151 -615 -605z"/>
</g>
</svg>
