<?xml version="1.0" standalone="no"?>
<!DOCTYPE svg PUBLIC "-//W3C//DTD SVG 20010904//EN"
 "http://www.w3.org/TR/2001/REC-SVG-20010904/DTD/svg10.dtd">
<svg version="1.0" xmlns="http://www.w3.org/2000/svg"
 width="800.000000pt" height="800.000000pt" viewBox="0 0 800.000000 800.000000"
 preserveAspectRatio="xMidYMid meet">

<g transform="translate(0.000000,800.000000) scale(0.100000,-0.100000)"
fill="#000000" stroke="none">
<path d="M1565 6561 c-50 -23 -109 -84 -130 -133 -24 -58 -20 -145 10 -204 34
-67 1547 -1581 1615 -1615 54 -27 146 -30 201 -7 133 57 192 217 126 343 -38
73 -1553 1585 -1617 1614 -58 27 -150 27 -205 2z"/>
<path d="M6230 6559 c-66 -29 -4749 -4711 -4785 -4783 -30 -59 -34 -146 -10
-204 21 -49 80 -110 130 -133 55 -25 147 -25 205 2 35 15 286 261 1138 1112
l1092 1092 1093 -1092 c851 -851 1102 -1097 1137 -1112 93 -42 208 -21 279 50
71 72 92 186 50 279 -15 35 -261 286 -1112 1138 l-1092 1092 1092 1093 c851
851 1097 1102 1112 1137 42 93 21 207 -50 279 -71 71 -186 92 -279 50z"/>
</g>
</svg>
