<?xml version="1.0" standalone="no"?>
<!DOCTYPE svg PUBLIC "-//W3C//DTD SVG 20010904//EN"
 "http://www.w3.org/TR/2001/REC-SVG-20010904/DTD/svg10.dtd">
<svg version="1.0" xmlns="http://www.w3.org/2000/svg"
 width="512.000000pt" height="512.000000pt" viewBox="0 0 512.000000 512.000000"
 preserveAspectRatio="xMidYMid meet">

<g transform="translate(0.000000,512.000000) scale(0.100000,-0.100000)"
fill="#000000" stroke="none">
<path d="M2373 5105 c-165 -30 -347 -113 -478 -219 -44 -35 -436 -421 -871
-858 -596 -597 -802 -811 -838 -865 -198 -303 -238 -650 -112 -983 47 -127
116 -236 227 -359 173 -191 1561 -1566 1629 -1613 389 -273 864 -276 1250 -8
111 78 1677 1646 1749 1753 70 103 127 227 158 345 23 86 26 116 26 262 0 146
-3 176 -26 263 -31 116 -99 263 -163 356 -64 91 -1612 1642 -1722 1725 -191
145 -410 217 -651 215 -58 0 -138 -7 -178 -14z m399 -447 c37 -14 93 -41 124
-59 83 -51 1655 -1627 1707 -1711 55 -91 79 -175 84 -298 6 -126 -11 -210 -64
-320 -35 -72 -64 -103 -862 -901 -800 -801 -828 -828 -901 -863 -105 -50 -178
-67 -295 -68 -74 0 -122 5 -180 21 -165 46 -136 19 -1009 890 -813 810 -852
852 -904 976 -70 169 -50 407 49 570 22 36 303 324 853 873 794 792 824 821
896 856 117 56 167 66 310 62 104 -2 136 -7 192 -28z"/>
<path d="M2480 3824 c-45 -20 -87 -59 -111 -106 -18 -35 -19 -67 -19 -678 0
-611 1 -643 19 -678 84 -163 306 -161 382 3 17 38 19 78 19 678 0 608 -1 640
-19 675 -53 102 -172 149 -271 106z"/>
<path d="M2485 1911 c-92 -24 -173 -90 -215 -176 -34 -69 -35 -198 -2 -265 34
-71 75 -114 144 -151 58 -31 70 -34 148 -33 72 0 93 4 136 26 75 40 107 70
145 140 31 58 34 70 34 148 0 78 -3 90 -34 148 -57 104 -144 160 -260 167 -36
2 -79 1 -96 -4z"/>
</g>
</svg>
