<?xml version="1.0" standalone="no"?>
<!DOCTYPE svg PUBLIC "-//W3C//DTD SVG 20010904//EN"
 "http://www.w3.org/TR/2001/REC-SVG-20010904/DTD/svg10.dtd">
<svg version="1.0" xmlns="http://www.w3.org/2000/svg"
 width="512.000000pt" height="512.000000pt" viewBox="0 0 512.000000 512.000000"
 preserveAspectRatio="xMidYMid meet">

<g transform="translate(0.000000,512.000000) scale(0.100000,-0.100000)"
fill="#000000" stroke="none">
<path d="M2315 5109 c-786 -75 -1501 -518 -1927 -1196 -487 -774 -516 -1777
-75 -2578 117 -213 253 -395 430 -573 211 -214 421 -365 692 -498 260 -127
509 -203 810 -246 119 -17 512 -16 635 1 622 86 1148 360 1572 820 349 378
573 862 650 1406 20 139 17 503 -6 660 -21 155 -80 393 -131 531 -45 123 -167
374 -231 474 -158 248 -414 528 -634 692 -520 388 -1150 567 -1785 507z m480
-429 c725 -81 1360 -529 1681 -1185 145 -297 214 -600 214 -939 0 -1011 -715
-1884 -1709 -2086 -362 -73 -751 -48 -1106 71 -453 153 -841 457 -1115 874
-78 119 -174 323 -224 476 -75 229 -106 422 -106 669 0 247 31 440 106 669
254 774 938 1340 1749 1446 123 16 388 18 510 5z"/>
<path d="M2460 4028 c-25 -14 -58 -44 -75 -67 l-30 -43 -3 -919 c-2 -890 -2
-920 17 -957 71 -139 247 -163 348 -49 18 20 37 54 43 74 8 27 10 310 8 944
l-3 906 -27 39 c-44 62 -90 88 -167 92 -55 3 -74 -1 -111 -20z"/>
<path d="M2460 1468 c-25 -14 -58 -44 -75 -67 -27 -39 -30 -50 -30 -120 0 -68
3 -82 27 -117 15 -21 44 -50 65 -64 31 -21 48 -25 113 -25 65 0 82 4 113 25
21 14 50 43 65 64 24 35 27 49 27 116 0 67 -3 81 -27 116 -44 62 -90 88 -167
92 -55 3 -74 -1 -111 -20z"/>
</g>
</svg>
