<?xml version="1.0" standalone="no"?>
<!DOCTYPE svg PUBLIC "-//W3C//DTD SVG 20010904//EN"
 "http://www.w3.org/TR/2001/REC-SVG-20010904/DTD/svg10.dtd">
<svg version="1.0" xmlns="http://www.w3.org/2000/svg"
 width="800.000000pt" height="800.000000pt" viewBox="0 0 800.000000 800.000000"
 preserveAspectRatio="xMidYMid meet">

<g transform="translate(0.000000,800.000000) scale(0.100000,-0.100000)"
fill="#000000" stroke="none">
<path d="M932 6659 c-105 -20 -204 -105 -243 -208 -28 -74 -23 -195 10 -259
34 -66 96 -128 160 -159 l56 -28 3085 0 3085 0 56 28 c64 31 126 93 160 159
33 64 38 185 10 259 -30 79 -88 141 -169 181 l-67 33 -3050 1 c-1677 1 -3069
-2 -3093 -7z"/>
<path d="M910 5321 c-92 -30 -163 -90 -207 -174 -25 -46 -28 -63 -28 -147 0
-131 20 -166 191 -341 l134 -135 0 -524 0 -524 -134 -135 c-171 -175 -191
-210 -191 -341 0 -84 3 -101 28 -147 34 -66 84 -116 150 -150 46 -25 63 -28
147 -28 154 0 127 -22 737 588 610 610 588 583 588 737 0 154 22 127 -588 737
-598 597 -582 584 -722 589 -44 2 -91 0 -105 -5z"/>
<path d="M3233 4981 c-136 -47 -217 -148 -230 -287 -11 -115 46 -237 141 -300
104 -69 -30 -65 2052 -62 l1879 3 67 33 c81 40 139 102 169 181 28 74 23 195
-10 259 -34 66 -96 128 -160 159 l-56 28 -1900 2 c-1806 2 -1903 2 -1952 -16z"/>
<path d="M3250 3654 c-158 -42 -262 -190 -247 -350 11 -119 76 -213 185 -266
l67 -33 1915 0 1915 0 56 28 c64 31 126 93 160 159 33 64 38 185 10 259 -30
79 -88 141 -169 181 l-67 33 -1885 2 c-1635 2 -1892 0 -1940 -13z"/>
<path d="M903 1986 c-85 -27 -160 -92 -204 -178 -33 -64 -38 -185 -10 -259 30
-79 88 -141 169 -181 l67 -33 3075 0 3075 0 67 33 c81 40 139 102 169 181 28
74 23 195 -10 259 -34 66 -96 128 -160 159 l-56 28 -3070 2 c-2506 1 -3078 -1
-3112 -11z"/>
</g>
</svg>
