<?xml version="1.0" standalone="no"?>
<!DOCTYPE svg PUBLIC "-//W3C//DTD SVG 20010904//EN"
 "http://www.w3.org/TR/2001/REC-SVG-20010904/DTD/svg10.dtd">
<svg version="1.0" xmlns="http://www.w3.org/2000/svg"
 width="512.000000pt" height="512.000000pt" viewBox="0 0 512.000000 512.000000"
 preserveAspectRatio="xMidYMid meet">

<g transform="translate(0.000000,512.000000) scale(0.100000,-0.100000)"
fill="#000000" stroke="none">
<path d="M615 4591 c-48 -22 -69 -44 -90 -94 -13 -32 -15 -138 -15 -829 0
-748 1 -795 19 -833 22 -48 44 -69 94 -90 32 -13 139 -15 832 -15 646 0 802 3
828 14 43 17 95 78 102 118 3 18 5 393 3 834 l-3 801 -29 37 c-16 21 -47 47
-70 57 -39 18 -81 19 -836 19 -750 0 -797 -1 -835 -19z m1435 -921 l0 -600
-600 0 -600 0 0 593 c0 327 3 597 7 600 3 4 273 7 600 7 l593 0 0 -600z"/>
<path d="M2834 4591 c-23 -10 -54 -36 -70 -57 l-29 -37 -3 -801 c-2 -441 0
-816 3 -834 7 -40 59 -101 102 -118 26 -11 182 -14 830 -14 753 0 800 1 838
19 48 22 69 44 90 94 13 32 15 138 15 827 0 689 -2 795 -15 827 -21 50 -42 72
-90 94 -38 18 -85 19 -835 19 -755 0 -797 -1 -836 -19z m1434 -923 l2 -598
-600 0 -600 0 0 600 0 600 598 -2 597 -3 3 -597z"/>
<path d="M615 2374 c-45 -23 -66 -45 -86 -89 -18 -38 -19 -85 -19 -835 0 -750
1 -797 19 -835 22 -48 44 -69 94 -90 32 -13 138 -15 829 -15 753 0 795 1 834
19 23 10 54 36 70 57 l29 37 3 801 c2 441 0 816 -3 834 -7 40 -59 101 -102
118 -26 11 -183 14 -835 14 -709 0 -807 -2 -833 -16z m1435 -924 l0 -600 -597
2 -598 3 -3 598 -2 597 600 0 600 0 0 -600z"/>
<path d="M2835 2376 c-42 -18 -93 -79 -100 -118 -3 -18 -5 -393 -3 -834 l3
-801 29 -37 c16 -21 47 -47 70 -57 39 -18 81 -19 836 -19 750 0 797 1 835 19
48 22 69 44 90 94 13 32 15 138 15 829 0 753 -1 795 -19 834 -10 23 -36 54
-57 70 l-37 29 -816 2 c-660 2 -822 0 -846 -11z m1433 -923 l-3 -598 -597 -3
-598 -2 0 600 0 600 600 0 600 0 -2 -597z"/>
</g>
</svg>
