<svg version="1.1" id="Layer_1" xmlns="http://www.w3.org/2000/svg" xmlns:xlink="http://www.w3.org/1999/xlink" x="0px" y="0px"
	 width="100%" viewBox="0 0 319 283" enable-background="new 0 0 319 283" xml:space="preserve">
<path fill="#FBFDFF" opacity="1.000000" stroke="none" 
	d="
M320.000000,95.000000 
	C320.000000,158.333328 320.000000,221.166641 320.000000,284.000000 
	C213.666702,284.000000 107.333397,284.000000 1.000068,284.000000 
	C1.000045,189.666718 1.000045,95.333427 1.000023,1.000106 
	C107.333260,1.000071 213.666519,1.000071 319.999878,1.000035 
	C320.000000,32.166668 320.000000,63.333332 320.000000,95.000000 
M70.437950,260.858398 
	C107.990242,258.314117 145.535858,255.664871 183.098221,253.279053 
	C197.383499,252.371704 211.712708,251.499939 226.012070,251.636917 
	C243.660812,251.805969 260.284241,257.761902 277.125854,262.343536 
	C285.616486,264.653351 294.258484,266.414062 302.858246,268.303772 
	C303.669464,268.482025 304.668945,267.803406 306.031036,267.384064 
	C290.918060,263.295105 276.618225,259.674957 262.471252,255.532822 
	C246.365555,250.817154 230.079300,247.903030 213.248016,248.942917 
	C189.977997,250.380630 166.723129,252.086380 143.444016,253.349854 
	C100.537773,255.678513 57.618469,257.766571 14.705478,259.971771 
	C13.661802,260.025421 12.628316,260.277374 11.590078,260.436859 
	C11.614204,261.113770 11.638330,261.790649 11.662457,262.467529 
	C30.930006,262.516266 50.198162,261.660980 70.437950,260.858398 
M260.645355,267.773193 
	C275.692322,271.972198 290.342621,277.883392 306.269104,278.447662 
	C305.094574,277.134033 303.689667,276.660950 302.257690,276.293121 
	C291.965668,273.649414 281.584961,271.312256 271.389954,268.337860 
	C251.060913,262.406921 230.783081,256.593292 209.210342,258.311920 
	C190.621674,259.792877 172.022766,261.197632 153.408066,262.289612 
	C107.537033,264.980591 61.654110,267.468964 15.777161,270.059845 
	C14.319542,270.142181 12.874940,270.454987 11.424270,270.660339 
	C11.435359,271.225159 11.446447,271.789948 11.457536,272.354767 
	C13.239109,272.516968 15.032762,272.903503 16.800474,272.808319 
	C53.544422,270.829742 90.292374,268.913177 127.024170,266.726227 
	C146.134323,265.588409 165.238403,264.212585 184.303116,262.480774 
	C209.795792,260.164978 235.153320,258.842651 260.645355,267.773193 
M26.223957,241.439026 
	C85.974709,239.573242 145.722916,237.617859 205.478516,235.922882 
	C216.439499,235.611969 227.509216,235.626205 238.388550,236.795074 
	C253.412109,238.409180 268.290344,241.345245 283.256409,243.540848 
	C288.780273,244.351227 294.376678,244.667145 299.940002,245.208588 
	C300.022522,244.512222 300.105011,243.815872 300.187531,243.119507 
	C298.040222,242.772186 295.899475,242.375397 293.744202,242.087875 
	C289.293549,241.494186 284.789185,241.199677 280.387329,240.360367 
	C250.700378,234.699860 220.961258,232.197479 190.573654,233.619064 
	C132.366943,236.342087 74.079575,237.339630 15.826348,239.075699 
	C14.363528,239.119324 12.908549,239.426041 11.449914,239.610077 
	C11.460187,240.235306 11.470459,240.860535 11.480732,241.485764 
	C16.079443,241.485764 20.678154,241.485764 26.223957,241.439026 
M220.494949,240.802841 
	C205.029449,241.500259 189.565262,242.227982 174.098221,242.889557 
	C121.363716,245.145279 68.628082,247.374847 15.893713,249.634003 
	C14.432716,249.696594 12.981223,249.980988 11.525299,250.161957 
	C11.538219,250.627640 11.551141,251.093338 11.564061,251.559036 
	C12.734660,251.718201 13.908906,252.038742 15.075311,252.012390 
	C33.720009,251.591095 52.381748,251.498123 71.004066,250.596451 
	C117.234344,248.357971 163.432419,245.402618 209.674973,243.503326 
	C222.699905,242.968353 235.962570,244.246658 248.883667,246.217636 
	C263.307343,248.417831 277.455597,252.402863 291.747864,255.499619 
	C295.409943,256.293091 299.163116,256.666412 302.874420,257.232788 
	C303.002045,256.556519 303.129700,255.880264 303.257355,255.204010 
	C301.849121,254.809219 300.460754,254.310394 299.029297,254.037399 
	C292.335938,252.760895 285.589325,251.735107 278.937561,250.274353 
	C259.951843,246.105026 241.186218,240.660736 220.494949,240.802841 
M58.496037,56.880310 
	C77.156380,54.134674 95.808678,52.635681 114.697784,54.958244 
	C127.222794,56.498283 139.891785,57.952385 152.469589,57.753548 
	C179.267609,57.329895 206.047791,55.794395 232.836075,54.734749 
	C252.136505,53.971298 271.438873,53.256031 290.738190,52.465839 
	C292.287415,52.402409 293.819672,51.923405 295.359802,51.637516 
	C295.287323,51.092358 295.214844,50.547195 295.142334,50.002033 
	C293.599243,50.002033 292.054047,49.949211 290.513336,50.009747 
	C250.914642,51.565655 211.322388,53.317219 171.714966,54.602390 
	C157.262314,55.071350 142.756912,54.817444 128.307343,54.176823 
	C117.865326,53.713879 107.494087,51.357903 97.059189,51.088295 
	C70.430618,50.400284 44.565929,56.955887 18.372065,60.408081 
	C17.700285,60.496620 17.147644,61.489140 16.539440,62.060066 
	C16.692055,62.499695 16.844671,62.939320 16.997286,63.378944 
	C30.537214,61.242847 44.077145,59.106747 58.496037,56.880310 
M51.508255,11.322588 
	C38.228020,11.563754 24.947783,11.804920 11.667545,12.046086 
	C11.636768,12.625931 11.605990,13.205775 11.575212,13.785620 
	C13.062437,13.926914 14.550303,14.196268 16.036783,14.188816 
	C26.032457,14.138711 36.034901,13.748958 46.021801,14.000115 
	C65.149162,14.481146 84.305359,14.791155 103.378326,16.162924 
	C119.777725,17.342405 136.040695,20.959120 152.433029,21.535830 
	C167.152786,22.053696 181.954590,19.441675 196.742188,19.058016 
	C211.028244,18.687366 225.341629,19.476385 239.644394,19.616554 
	C258.304810,19.799431 276.254608,15.323837 294.210632,10.987351 
	C295.290436,10.726577 296.235596,9.908324 297.243408,9.349475 
	C297.111755,8.950179 296.980103,8.550884 296.848480,8.151588 
	C295.666656,8.258626 294.458710,8.244887 293.307617,8.493979 
	C288.757996,9.478489 284.230499,10.564365 279.687134,11.578418 
	C261.407196,15.658387 243.045990,17.485691 224.196075,16.462324 
	C209.811005,15.681358 195.263474,16.739475 180.854858,17.846811 
	C164.033554,19.139570 147.259338,20.231335 130.540131,17.429262 
	C104.696060,13.097898 78.737785,10.542716 51.508255,11.322588 
M269.783112,232.560043 
	C272.944763,232.689728 276.105713,232.842300 279.268311,232.942657 
	C282.431061,233.043030 285.612732,233.324463 288.754028,233.092300 
	C291.527008,232.887360 294.727783,234.925705 297.885956,231.467422 
	C295.898132,231.194717 294.687500,230.915466 293.469421,230.877838 
	C249.525970,229.521133 205.580765,228.220627 161.638672,226.822128 
	C152.490265,226.530975 143.356094,225.816910 134.209946,225.423874 
	C117.084900,224.687973 99.919388,223.011856 82.837479,223.615677 
	C59.905056,224.426285 37.035275,227.019974 14.142240,228.892670 
	C13.237850,228.966675 12.370953,229.498978 11.486585,229.817734 
	C11.565392,230.276627 11.644198,230.735535 11.723005,231.194443 
	C16.955683,230.946075 22.189766,230.724075 27.420801,230.444916 
	C54.166943,229.017685 80.898941,226.942337 107.662964,226.377670 
	C123.579437,226.041855 139.534042,228.405396 155.492218,228.976761 
	C193.269180,230.329269 231.058533,231.336395 269.783112,232.560043 
M151.556717,37.937462 
	C141.944305,37.107948 132.336609,36.218441 122.718460,35.461853 
	C104.654755,34.040913 86.590508,31.704895 68.516212,31.604801 
	C51.078705,31.508232 33.627293,33.738956 16.185783,34.999744 
	C15.132428,35.075886 14.112569,35.615387 13.077124,35.939285 
	C14.102312,37.354042 14.983153,37.779953 15.826228,37.715080 
	C25.454487,36.974201 35.064400,35.749550 44.703804,35.452728 
	C61.822258,34.925606 79.031586,33.855480 96.068054,35.007145 
	C119.597054,36.597713 142.798325,41.955853 166.661789,40.170021 
	C207.846466,37.087944 249.071411,34.544502 290.275909,31.723207 
	C292.362976,31.580305 294.416534,30.948549 296.485718,30.544405 
	C296.412781,30.056448 296.339844,29.568493 296.266876,29.080538 
	C294.552429,29.080538 292.827087,28.954145 291.125275,29.100769 
	C278.848236,30.158524 266.593994,31.573696 254.298645,32.309177 
	C220.385971,34.337765 186.456726,36.089375 151.556717,37.937462 
M85.714073,61.064083 
	C62.724152,63.074890 40.596722,69.422539 18.074047,73.923233 
	C19.482187,74.762650 20.787634,74.958031 22.015608,74.732185 
	C33.295563,72.657562 44.586857,70.632195 55.826900,68.355743 
	C73.995590,64.676056 92.211662,62.146992 110.832924,64.004738 
	C123.065048,65.225067 135.356567,67.081779 147.588379,66.856483 
	C196.036194,65.964127 244.471024,64.366203 292.909821,62.999451 
	C293.591644,62.980209 294.262360,62.567490 294.938293,62.338413 
	C294.944672,61.895885 294.951080,61.453362 294.957489,61.010838 
	C293.548309,60.787403 292.133850,60.340244 290.730713,60.373405 
	C259.431580,61.113083 228.134674,61.947334 196.835266,62.674004 
	C175.033234,63.180180 153.223816,64.020760 131.425797,63.822598 
	C116.500465,63.686909 101.589050,62.021450 85.714073,61.064083 
M77.631058,41.068367 
	C56.761814,43.361691 35.892574,45.655014 15.023332,47.948341 
	C15.079654,48.602600 15.135975,49.256859 15.192297,49.911118 
	C17.427307,49.911118 19.688648,50.133274 21.892691,49.872017 
	C30.651642,48.833771 39.392956,47.646523 48.140347,46.510979 
	C67.489616,43.999157 86.804764,42.199661 106.370064,44.734875 
	C121.705208,46.721951 137.222260,49.363758 152.564056,48.856800 
	C199.500000,47.305824 246.390640,44.381390 293.296631,41.947487 
	C294.219269,41.899609 295.114166,41.316624 296.022003,40.983295 
	C295.966156,40.447124 295.910309,39.910950 295.854462,39.374775 
	C294.047729,39.374775 292.235779,39.285137 290.435150,39.390007 
	C281.789612,39.893520 273.148743,40.477463 264.503265,40.981853 
	C237.400208,42.563091 210.311401,44.551998 183.186356,45.535557 
	C165.421539,46.179722 147.582718,45.831059 129.815277,45.053257 
	C112.718452,44.304813 95.670815,42.432468 77.631058,41.068367 
M274.709808,21.268341 
	C262.788788,22.504873 250.891037,24.078341 238.941635,24.904737 
	C217.011337,26.421392 195.063904,27.980049 173.097794,28.586437 
	C158.667999,28.984779 144.155548,28.223625 129.748596,27.102077 
	C115.166039,25.966858 100.696846,22.637489 86.126045,22.256531 
	C62.339432,21.634621 38.510521,22.616983 14.700146,22.969177 
	C13.766090,22.982996 12.839158,23.478374 11.908906,23.749367 
	C11.928091,24.161394 11.947275,24.573420 11.966459,24.985445 
	C13.122022,25.182137 14.283850,25.579813 15.432163,25.544010 
	C25.422750,25.232529 35.416653,24.957268 45.398632,24.454165 
	C68.079323,23.311033 90.609070,24.171089 113.151413,27.369917 
	C128.762787,29.585220 144.595459,31.108942 160.345184,31.258099 
	C179.303787,31.437643 198.326309,30.407604 217.235992,28.860308 
	C242.937469,26.757269 268.559357,23.678766 294.209412,20.962027 
	C295.192169,20.857937 296.112549,20.165058 297.062012,19.746546 
	C296.916595,19.289551 296.771179,18.832554 296.625732,18.375559 
	C289.619476,19.306629 282.613190,20.237700 274.709808,21.268341 
M175.276962,75.627495 
	C182.425674,75.366882 189.577957,75.173676 196.720459,74.795685 
	C198.392197,74.707214 200.030807,73.992867 201.684647,73.566467 
	C201.585938,73.066971 201.487228,72.567474 201.388519,72.067970 
	C170.068039,71.959274 138.714157,77.664970 107.270515,71.955711 
	C108.789101,73.390327 110.427650,74.414375 112.157318,74.603043 
	C120.732597,75.538406 129.327301,76.837494 137.923889,76.905510 
	C150.052048,77.001465 162.187866,76.128876 175.276962,75.627495 
M116.618042,212.030243 
	C114.453278,211.863113 112.288506,211.695999 109.345619,211.468826 
	C116.471535,217.999847 193.766617,224.415573 200.363556,219.070419 
	C185.971573,218.641464 172.167618,218.814438 158.475983,217.657776 
	C144.752213,216.498413 131.140564,214.012177 116.618042,212.030243 
M142.502533,84.088112 
	C133.086105,83.677124 123.669678,83.266129 113.650307,82.828827 
	C120.482277,88.122757 189.498993,88.172958 195.444702,82.881386 
	C177.776215,83.291878 160.638931,83.690033 142.502533,84.088112 
M184.485229,92.084526 
	C163.384842,93.125435 142.284454,94.166344 122.074203,95.163345 
	C127.015663,99.238518 184.911636,97.531807 189.928848,92.016151 
	C188.207001,92.016151 186.789398,92.016151 184.485229,92.084526 
M257.535461,130.048508 
	C253.958038,130.227249 250.380615,130.405991 245.570892,130.646301 
	C247.192062,132.137314 247.523010,132.711380 247.866898,132.719238 
	C263.810150,133.082947 279.754181,133.421753 295.699738,133.649506 
	C296.549744,133.661652 297.413818,132.689346 298.271362,132.175323 
	C298.117218,131.466736 297.963104,130.758163 297.808960,130.049576 
	C284.714569,130.049576 271.620148,130.049576 257.535461,130.048508 
M19.071516,199.421356 
	C33.885559,197.434891 48.510036,194.600723 62.962597,190.997757 
	C62.824192,190.344299 62.685787,189.690842 62.547382,189.037384 
	C45.536564,192.126160 28.525742,195.214920 11.514921,198.303696 
	C11.571060,198.861084 11.627198,199.418457 11.683336,199.975830 
	C13.861448,199.846619 16.039560,199.717407 19.071516,199.421356 
M41.499905,138.983047 
	C48.578541,138.983047 55.657173,138.983047 62.735809,138.983047 
	C62.720936,138.292053 62.706066,137.601059 62.691196,136.910065 
	C45.720695,136.910065 28.750193,136.910065 11.779692,136.910065 
	C11.731332,137.462082 11.682972,138.014099 11.634612,138.566132 
	C21.243195,138.880615 30.879393,138.820511 41.499905,138.983047 
M289.398926,143.006424 
	C276.793304,142.706940 264.188385,142.365005 251.581223,142.160187 
	C249.954697,142.133759 248.316635,142.817444 246.683914,143.172180 
	C246.783844,143.793976 246.883774,144.415771 246.983704,145.037567 
	C263.768311,145.037567 280.552887,145.037567 297.337494,145.037567 
	C297.394012,144.589783 297.450531,144.141998 297.507080,143.694214 
	C295.115601,143.473953 292.724152,143.253708 289.398926,143.006424 
M61.921097,163.681137 
	C45.148552,164.801056 28.376005,165.920975 11.603460,167.040878 
	C11.978438,168.658615 12.239127,169.035675 12.476745,169.021652 
	C28.739214,168.062378 45.000912,167.087875 61.255287,166.003906 
	C61.731609,165.972122 62.129028,164.757233 61.921097,163.681137 
M47.811337,205.140778 
	C52.835724,204.062271 58.234646,204.345963 62.911064,202.001846 
	C62.781685,201.425812 62.652306,200.849792 62.522926,200.273758 
	C45.509254,203.070007 28.495583,205.866257 11.481911,208.662506 
	C11.600070,209.425888 11.718229,210.189270 11.836388,210.952637 
	C23.541887,209.062378 35.247387,207.172119 47.811337,205.140778 
M56.430164,215.959839 
	C58.618656,215.465042 60.807144,214.970245 62.995636,214.475449 
	C62.870319,213.861847 62.745003,213.248245 62.619686,212.634628 
	C45.602669,214.789688 28.585649,216.944733 11.568632,219.099792 
	C11.659284,219.859940 11.749936,220.620102 11.840588,221.380249 
	C26.416933,219.595551 40.993279,217.810837 56.430164,215.959839 
M271.699432,100.955864 
	C263.437256,100.357704 255.184341,98.586388 246.908676,99.702919 
	C246.892929,100.231598 246.877197,100.760277 246.861450,101.288956 
	C263.482666,102.888519 280.103882,104.488091 296.725098,106.087662 
	C296.800140,105.379837 296.875214,104.672020 296.950256,103.964195 
	C288.838043,102.973900 280.725861,101.983604 271.699432,100.955864 
M253.626175,219.055008 
	C251.378403,219.226593 249.130615,219.398178 246.882843,219.569748 
	C246.921097,220.127243 246.959351,220.684738 246.997589,221.242233 
	C262.969788,221.242233 278.941986,221.242233 294.914185,221.242233 
	C294.928558,220.578812 294.942932,219.915375 294.957275,219.251953 
	C281.503815,219.186310 268.050354,219.120682 253.626175,219.055008 
M52.574959,184.007477 
	C56.040073,183.298859 59.505188,182.590240 62.970303,181.881622 
	C62.817924,181.197495 62.665543,180.513367 62.513165,179.829239 
	C45.499905,182.538040 28.486647,185.246857 11.473387,187.955658 
	C11.590425,188.719116 11.707462,189.482590 11.824499,190.246048 
	C25.116571,188.188782 38.408646,186.131500 52.574959,184.007477 
M251.537079,110.205589 
	C266.861847,111.398033 282.186584,112.590477 297.511353,113.782921 
	C291.298584,109.364883 251.813675,106.380966 245.673111,109.668083 
	C248.010010,109.919144 249.339554,110.061981 251.537079,110.205589 
M276.667847,121.732018 
	C283.749664,122.069336 290.831512,122.406662 297.913330,122.743988 
	C297.667664,121.342140 297.233490,120.675713 296.766968,120.652237 
	C280.703003,119.844025 264.636810,119.075638 248.566299,118.414841 
	C247.902191,118.387527 247.193268,119.449852 246.505234,120.004517 
	C246.661057,120.562347 246.816879,121.120171 246.972702,121.678001 
	C256.554626,121.678001 266.136536,121.678001 276.667847,121.732018 
M130.332977,106.923637 
	C148.459167,107.324318 166.618073,108.043259 184.058731,101.893959 
	C165.320648,103.198639 146.582565,104.503311 128.160446,105.785980 
	C128.185822,105.806351 128.859970,106.347305 130.332977,106.923637 
M37.938187,109.305260 
	C42.341389,108.455482 46.757580,107.667007 51.143917,106.737640 
	C55.059959,105.907928 58.943027,104.922592 62.840649,104.005928 
	C62.678513,103.285957 62.516380,102.565987 62.354244,101.846024 
	C46.747421,104.910706 31.140594,107.975395 15.533771,111.040085 
	C15.677692,111.817627 15.821614,112.595161 15.965536,113.372704 
	C23.016912,112.096077 30.068289,110.819450 37.938187,109.305260 
M58.598339,174.195557 
	C60.023304,173.952087 61.448269,173.708633 62.873234,173.465179 
	C62.764587,172.807281 62.655945,172.149384 62.547302,171.491501 
	C45.520344,173.517670 28.493385,175.543839 11.466429,177.570007 
	C11.534741,178.251663 11.603053,178.933319 11.671366,179.614975 
	C27.116310,178.735992 42.408451,176.151718 58.598339,174.195557 
M283.252899,70.401939 
	C271.022339,70.423820 258.766113,69.885803 246.577545,70.823807 
	C246.596756,71.425339 246.615952,72.026878 246.635162,72.628410 
	C262.583069,72.628410 278.531006,72.628410 294.478912,72.628410 
	C294.521301,72.143623 294.563690,71.658836 294.606079,71.174042 
	C291.133270,70.933723 287.660431,70.693398 283.252899,70.401939 
M285.339661,156.284424 
	C272.533630,156.284424 259.727631,156.284424 246.921616,156.284424 
	C246.928406,156.899460 246.935211,157.514481 246.942001,158.129517 
	C263.459961,158.129517 279.977936,158.129517 296.495911,158.129517 
	C296.515778,157.799423 296.535675,157.469330 296.555542,157.139236 
	C293.133087,156.859512 289.710632,156.579803 285.339661,156.284424 
M270.066620,89.218307 
	C278.382263,89.954315 286.697906,90.690323 295.013519,91.426331 
	C295.054871,90.670410 295.096191,89.914490 295.137512,89.158569 
	C279.068451,87.319313 263.003113,85.419411 246.784058,86.009834 
	C246.732666,86.694206 246.681274,87.378578 246.629883,88.062950 
	C254.130463,88.427643 261.631012,88.792336 270.066620,89.218307 
M21.553785,148.973816 
	C26.212179,149.002502 30.870600,149.027771 35.528961,149.060776 
	C40.353764,149.094971 45.178455,149.149750 50.003304,149.171143 
	C54.245205,149.189957 58.487255,149.175064 62.729237,149.175064 
	C62.692810,148.426987 62.656380,147.678894 62.619953,146.930817 
	C45.629143,147.432953 28.633932,145.485031 11.644064,146.510925 
	C11.617435,147.329590 11.590807,148.148239 11.564178,148.966904 
	C14.569180,148.966904 17.574179,148.966904 21.553785,148.973816 
M40.889309,125.427681 
	C31.399168,126.006813 21.909027,126.585953 12.418885,127.165085 
	C12.458750,127.838333 12.498613,128.511581 12.538478,129.184830 
	C29.320650,129.579498 45.980766,127.302811 62.712872,126.601692 
	C62.704590,126.182983 62.696308,125.764275 62.688030,125.345566 
	C55.734737,125.345566 48.781448,125.345566 40.889309,125.427681 
M248.413498,94.747330 
	C264.244507,96.012253 280.075500,97.277184 295.906494,98.542114 
	C295.998657,98.106331 296.090790,97.670547 296.182922,97.234764 
	C294.785309,96.858612 293.408752,96.327087 291.986267,96.134659 
	C287.219818,95.489822 282.447571,94.846275 277.658112,94.421570 
	C268.400177,93.600632 259.132324,92.882042 249.861191,92.226036 
	C247.244980,92.040916 247.233139,92.208160 248.413498,94.747330 
M53.082050,116.464882 
	C56.371647,116.016418 59.661243,115.567947 62.950844,115.119484 
	C62.816151,114.358925 62.681461,113.598366 62.546768,112.837807 
	C46.336987,114.864861 30.127203,116.891907 13.917420,118.918961 
	C14.008817,119.703697 14.100213,120.488434 14.191608,121.273170 
	C26.860399,119.720528 39.529190,118.167885 53.082050,116.464882 
M283.848114,170.775208 
	C271.570343,170.775208 259.292603,170.775208 246.443283,170.775208 
	C250.207596,173.446472 292.588440,173.888077 296.642609,170.809647 
	C291.924072,170.809647 288.351776,170.809647 283.848114,170.775208 
M48.597042,98.003586 
	C53.422268,96.784431 58.247498,95.565269 63.072723,94.346115 
	C62.853794,93.590843 62.634861,92.835564 62.415932,92.080292 
	C47.287029,95.737709 32.158127,99.395134 17.029226,103.052551 
	C17.206932,103.814751 17.384638,104.576950 17.562346,105.339157 
	C27.634151,102.939972 37.705959,100.540787 48.597042,98.003586 
M25.786453,92.332001 
	C23.239769,93.009781 20.693083,93.687561 17.032297,94.661850 
	C22.899317,96.680809 60.857510,86.844986 63.073929,82.801727 
	C50.475670,86.015854 38.525154,89.064728 25.786453,92.332001 
M280.488159,199.972504 
	C284.965729,199.972504 289.443329,199.972504 293.920898,199.972504 
	C293.888824,199.438675 293.856720,198.904861 293.824615,198.371033 
	C278.219452,198.371033 262.614319,198.371033 246.809341,198.371033 
	C247.090958,199.687912 247.161621,200.291061 247.228088,200.290573 
	C257.983246,200.215591 268.738098,200.097244 280.488159,199.972504 
M156.895432,210.659225 
	C171.168549,211.184067 185.441650,211.708923 199.714767,212.233765 
	C197.382233,208.939621 156.649170,207.645203 147.224091,209.589767 
	C150.784409,209.984894 153.387863,210.273819 156.895432,210.659225 
M165.118561,113.889709 
	C154.848419,114.562691 144.578262,115.235664 133.614212,115.954109 
	C139.552139,120.110672 172.980698,116.908974 178.720093,111.280602 
	C173.662949,112.265991 169.824036,113.014008 165.118561,113.889709 
M274.834198,82.482529 
	C281.445160,82.482529 288.056091,82.482529 294.667053,82.482529 
	C294.663605,81.921562 294.660187,81.360596 294.656769,80.799629 
	C278.776642,79.529541 262.882202,79.668739 246.984940,80.085052 
	C246.971420,80.873688 246.957901,81.662331 246.944382,82.450974 
	C255.928101,82.450974 264.911804,82.450974 274.834198,82.482529 
M40.547058,82.031372 
	C48.019890,80.099182 55.492718,78.166992 62.965549,76.234802 
	C62.787640,75.585709 62.609734,74.936623 62.431824,74.287537 
	C47.826061,77.675308 33.220299,81.063080 18.614538,84.450844 
	C18.769615,85.172417 18.924694,85.893982 19.079771,86.615547 
	C25.961536,85.131882 32.843304,83.648216 40.547058,82.031372 
M20.591455,159.026031 
	C34.620766,159.026031 48.650074,159.026031 62.679382,159.026031 
	C62.391003,157.610062 62.043232,157.113052 61.687935,157.107605 
	C45.716095,156.862823 29.743746,156.641129 13.770685,156.515167 
	C12.989479,156.509018 12.201315,157.385361 11.416390,157.850754 
	C11.540347,158.241043 11.664303,158.631332 11.788259,159.021622 
	C14.401389,159.021622 17.014521,159.021622 20.591455,159.026031 
M287.314087,210.923859 
	C289.475739,210.790634 291.637421,210.657425 293.799072,210.524200 
	C293.766266,210.081329 293.733429,209.638443 293.700623,209.195557 
	C278.161285,209.195557 262.621948,209.195557 246.608292,209.195557 
	C247.173828,210.392166 247.369598,211.165131 247.563065,211.164551 
	C260.495270,211.126221 273.427277,211.025574 287.314087,210.923859 
M259.378052,187.794006 
	C271.090454,187.400284 282.802856,187.006561 294.515289,186.612839 
	C294.487274,186.376923 294.459290,186.141006 294.431274,185.905090 
	C278.640381,185.905090 262.849487,185.905090 247.058609,185.905090 
	C247.055740,186.548248 247.052872,187.191422 247.050003,187.834579 
	C250.839050,187.834579 254.628098,187.834579 259.378052,187.794006 
M119.681358,199.875977 
	C116.519699,199.262848 113.358040,198.649719 110.196381,198.036591 
	C110.045395,198.722321 109.894409,199.408066 109.743423,200.093811 
	C119.341743,202.475525 128.940048,204.857254 138.538376,207.238968 
	C138.726456,206.594147 138.914551,205.949326 139.102631,205.304520 
	C132.900787,203.536392 126.698929,201.768265 119.681358,199.875977 
M147.191452,128.297241 
	C155.308319,127.863655 163.502625,127.815910 171.072739,124.657928 
	C170.989426,124.227081 170.906128,123.796227 170.822815,123.365379 
	C160.893280,124.429749 150.963745,125.494125 141.034210,126.558495 
	C141.024994,127.011185 141.015762,127.463875 141.006531,127.916565 
	C142.779953,128.067657 144.553391,128.218750 147.191452,128.297241 
M177.881119,201.565781 
	C194.549286,202.472702 197.300171,202.280533 200.188507,199.434967 
	C191.017563,198.780777 182.487900,198.861191 173.957550,198.884720 
	C173.930618,199.502914 173.903687,200.121109 173.876755,200.739304 
	C174.909210,200.994873 175.941666,201.250443 177.881119,201.565781 
M115.693199,187.864212 
	C113.858780,187.518616 112.024361,187.173004 110.189941,186.827408 
	C110.023521,187.470688 109.857109,188.113968 109.690689,188.757263 
	C116.766808,190.696167 123.842918,192.635071 132.326248,194.959564 
	C127.618881,188.886597 121.372551,190.046341 115.693199,187.864212 
M187.584717,187.935333 
	C185.042191,188.084763 182.499664,188.234177 179.957153,188.383606 
	C179.998627,188.838425 180.040115,189.293259 180.081589,189.748077 
	C186.557724,189.748077 193.033875,189.748077 199.510010,189.748077 
	C199.524155,189.143829 199.538300,188.539566 199.552444,187.935318 
	C195.882874,187.935318 192.213303,187.935318 187.584717,187.935333 
M161.321823,135.053650 
	C156.571396,135.523514 151.820969,135.993378 146.421722,136.527420 
	C149.600723,138.906418 162.130615,138.467331 163.602020,136.437805 
	C163.667206,136.347916 162.680115,135.495132 161.321823,135.053650 
M111.569633,178.435745 
	C111.528137,179.264511 111.324333,180.787430 111.468727,180.821167 
	C115.836899,181.842499 120.239372,182.717087 126.017479,183.896515 
	C121.571815,178.927277 116.586067,179.799667 111.569633,178.435745 
M187.392593,176.323380 
	C191.714340,178.136353 195.557571,176.611816 199.457397,175.481979 
	C199.347900,174.766785 199.238388,174.051575 199.128891,173.336380 
	C195.353867,174.132919 191.578827,174.929474 187.392593,176.323380 
M115.830383,171.429321 
	C113.892082,171.321060 111.953781,171.212799 110.015480,171.104538 
	C109.938835,171.774475 109.862183,172.444412 109.785538,173.114349 
	C112.804176,173.627045 115.822807,174.139740 118.841446,174.652435 
	C119.023262,174.242035 119.205078,173.831635 119.386902,173.421234 
	C118.465332,172.831177 117.543762,172.241104 115.830383,171.429321 
z"/>
<path fill="#2943E1" opacity="1.000000" stroke="none" 
	d="
M69.952103,260.877441 
	C50.198162,261.660980 30.930006,262.516266 11.662457,262.467529 
	C11.638330,261.790649 11.614204,261.113770 11.590078,260.436859 
	C12.628316,260.277374 13.661802,260.025421 14.705478,259.971771 
	C57.618469,257.766571 100.537773,255.678513 143.444016,253.349854 
	C166.723129,252.086380 189.977997,250.380630 213.248016,248.942917 
	C230.079300,247.903030 246.365555,250.817154 262.471252,255.532822 
	C276.618225,259.674957 290.918060,263.295105 306.031036,267.384064 
	C304.668945,267.803406 303.669464,268.482025 302.858246,268.303772 
	C294.258484,266.414062 285.616486,264.653351 277.125854,262.343536 
	C260.284241,257.761902 243.660812,251.805969 226.012070,251.636917 
	C211.712708,251.499939 197.383499,252.371704 183.098221,253.279053 
	C145.535858,255.664871 107.990242,258.314117 69.952103,260.877441 
z"/>
<path fill="#2D41E1" opacity="1.000000" stroke="none" 
	d="
M260.267853,267.627258 
	C235.153320,258.842651 209.795792,260.164978 184.303116,262.480774 
	C165.238403,264.212585 146.134323,265.588409 127.024170,266.726227 
	C90.292374,268.913177 53.544422,270.829742 16.800474,272.808319 
	C15.032762,272.903503 13.239109,272.516968 11.457536,272.354767 
	C11.446447,271.789948 11.435359,271.225159 11.424270,270.660339 
	C12.874940,270.454987 14.319542,270.142181 15.777161,270.059845 
	C61.654110,267.468964 107.537033,264.980591 153.408066,262.289612 
	C172.022766,261.197632 190.621674,259.792877 209.210342,258.311920 
	C230.783081,256.593292 251.060913,262.406921 271.389954,268.337860 
	C281.584961,271.312256 291.965668,273.649414 302.257690,276.293121 
	C303.689667,276.660950 305.094574,277.134033 306.269104,278.447662 
	C290.342621,277.883392 275.692322,271.972198 260.267853,267.627258 
z"/>
<path fill="#2B4FE3" opacity="1.000000" stroke="none" 
	d="
M25.750412,241.462402 
	C20.678154,241.485764 16.079443,241.485764 11.480732,241.485764 
	C11.470459,240.860535 11.460187,240.235306 11.449914,239.610077 
	C12.908549,239.426041 14.363528,239.119324 15.826348,239.075699 
	C74.079575,237.339630 132.366943,236.342087 190.573654,233.619064 
	C220.961258,232.197479 250.700378,234.699860 280.387329,240.360367 
	C284.789185,241.199677 289.293549,241.494186 293.744202,242.087875 
	C295.899475,242.375397 298.040222,242.772186 300.187531,243.119507 
	C300.105011,243.815872 300.022522,244.512222 299.940002,245.208588 
	C294.376678,244.667145 288.780273,244.351227 283.256409,243.540848 
	C268.290344,241.345245 253.412109,238.409180 238.388550,236.795074 
	C227.509216,235.626205 216.439499,235.611969 205.478516,235.922882 
	C145.722916,237.617859 85.974709,239.573242 25.750412,241.462402 
z"/>
<path fill="#2B49E2" opacity="1.000000" stroke="none" 
	d="
M220.993683,240.802490 
	C241.186218,240.660736 259.951843,246.105026 278.937561,250.274353 
	C285.589325,251.735107 292.335938,252.760895 299.029297,254.037399 
	C300.460754,254.310394 301.849121,254.809219 303.257355,255.204010 
	C303.129700,255.880264 303.002045,256.556519 302.874420,257.232788 
	C299.163116,256.666412 295.409943,256.293091 291.747864,255.499619 
	C277.455597,252.402863 263.307343,248.417831 248.883667,246.217636 
	C235.962570,244.246658 222.699905,242.968353 209.674973,243.503326 
	C163.432419,245.402618 117.234344,248.357971 71.004066,250.596451 
	C52.381748,251.498123 33.720009,251.591095 15.075311,252.012390 
	C13.908906,252.038742 12.734660,251.718201 11.564061,251.559036 
	C11.551141,251.093338 11.538219,250.627640 11.525299,250.161957 
	C12.981223,249.980988 14.432716,249.696594 15.893713,249.634003 
	C68.628082,247.374847 121.363716,245.145279 174.098221,242.889557 
	C189.565262,242.227982 205.029449,241.500259 220.993683,240.802490 
z"/>
<path fill="#27A9F3" opacity="1.000000" stroke="none" 
	d="
M58.056557,56.925480 
	C44.077145,59.106747 30.537214,61.242847 16.997286,63.378944 
	C16.844671,62.939320 16.692055,62.499695 16.539440,62.060066 
	C17.147644,61.489140 17.700285,60.496620 18.372065,60.408081 
	C44.565929,56.955887 70.430618,50.400284 97.059189,51.088295 
	C107.494087,51.357903 117.865326,53.713879 128.307343,54.176823 
	C142.756912,54.817444 157.262314,55.071350 171.714966,54.602390 
	C211.322388,53.317219 250.914642,51.565655 290.513336,50.009747 
	C292.054047,49.949211 293.599243,50.002033 295.142334,50.002033 
	C295.214844,50.547195 295.287323,51.092358 295.359802,51.637516 
	C293.819672,51.923405 292.287415,52.402409 290.738190,52.465839 
	C271.438873,53.256031 252.136505,53.971298 232.836075,54.734749 
	C206.047791,55.794395 179.267609,57.329895 152.469589,57.753548 
	C139.891785,57.952385 127.222794,56.498283 114.697784,54.958244 
	C95.808678,52.635681 77.156380,54.134674 58.056557,56.925480 
z"/>
<path fill="#22BAF6" opacity="1.000000" stroke="none" 
	d="
M52.006958,11.322628 
	C78.737785,10.542716 104.696060,13.097898 130.540131,17.429262 
	C147.259338,20.231335 164.033554,19.139570 180.854858,17.846811 
	C195.263474,16.739475 209.811005,15.681358 224.196075,16.462324 
	C243.045990,17.485691 261.407196,15.658387 279.687134,11.578418 
	C284.230499,10.564365 288.757996,9.478489 293.307617,8.493979 
	C294.458710,8.244887 295.666656,8.258626 296.848480,8.151588 
	C296.980103,8.550884 297.111755,8.950179 297.243408,9.349475 
	C296.235596,9.908324 295.290436,10.726577 294.210632,10.987351 
	C276.254608,15.323837 258.304810,19.799431 239.644394,19.616554 
	C225.341629,19.476385 211.028244,18.687366 196.742188,19.058016 
	C181.954590,19.441675 167.152786,22.053696 152.433029,21.535830 
	C136.040695,20.959120 119.777725,17.342405 103.378326,16.162924 
	C84.305359,14.791155 65.149162,14.481146 46.021801,14.000115 
	C36.034901,13.748958 26.032457,14.138711 16.036783,14.188816 
	C14.550303,14.196268 13.062437,13.926914 11.575212,13.785620 
	C11.605990,13.205775 11.636768,12.625931 11.667545,12.046086 
	C24.947783,11.804920 38.228020,11.563754 52.006958,11.322628 
z"/>
<path fill="#2A52E4" opacity="1.000000" stroke="none" 
	d="
M269.312988,232.521591 
	C231.058533,231.336395 193.269180,230.329269 155.492218,228.976761 
	C139.534042,228.405396 123.579437,226.041855 107.662964,226.377670 
	C80.898941,226.942337 54.166943,229.017685 27.420801,230.444916 
	C22.189766,230.724075 16.955683,230.946075 11.723005,231.194443 
	C11.644198,230.735535 11.565392,230.276627 11.486585,229.817734 
	C12.370953,229.498978 13.237850,228.966675 14.142240,228.892670 
	C37.035275,227.019974 59.905056,224.426285 82.837479,223.615677 
	C99.919388,223.011856 117.084900,224.687973 134.209946,225.423874 
	C143.356094,225.816910 152.490265,226.530975 161.638672,226.822128 
	C205.580765,228.220627 249.525970,229.521133 293.469421,230.877838 
	C294.687500,230.915466 295.898132,231.194717 297.885956,231.467422 
	C294.727783,234.925705 291.527008,232.887360 288.754028,233.092300 
	C285.612732,233.324463 282.431061,233.043030 279.268311,232.942657 
	C276.105713,232.842300 272.944763,232.689728 269.312988,232.521591 
z"/>
<path fill="#23B1F5" opacity="1.000000" stroke="none" 
	d="
M152.045380,37.943993 
	C186.456726,36.089375 220.385971,34.337765 254.298645,32.309177 
	C266.593994,31.573696 278.848236,30.158524 291.125275,29.100769 
	C292.827087,28.954145 294.552429,29.080538 296.266876,29.080538 
	C296.339844,29.568493 296.412781,30.056448 296.485718,30.544405 
	C294.416534,30.948549 292.362976,31.580305 290.275909,31.723207 
	C249.071411,34.544502 207.846466,37.087944 166.661789,40.170021 
	C142.798325,41.955853 119.597054,36.597713 96.068054,35.007145 
	C79.031586,33.855480 61.822258,34.925606 44.703804,35.452728 
	C35.064400,35.749550 25.454487,36.974201 15.826228,37.715080 
	C14.983153,37.779953 14.102312,37.354042 13.077124,35.939285 
	C14.112569,35.615387 15.132428,35.075886 16.185783,34.999744 
	C33.627293,33.738956 51.078705,31.508232 68.516212,31.604801 
	C86.590508,31.704895 104.654755,34.040913 122.718460,35.461853 
	C132.336609,36.218441 141.944305,37.107948 152.045380,37.943993 
z"/>
<path fill="#21A1F2" opacity="1.000000" stroke="none" 
	d="
M86.192749,61.051979 
	C101.589050,62.021450 116.500465,63.686909 131.425797,63.822598 
	C153.223816,64.020760 175.033234,63.180180 196.835266,62.674004 
	C228.134674,61.947334 259.431580,61.113083 290.730713,60.373405 
	C292.133850,60.340244 293.548309,60.787403 294.957489,61.010838 
	C294.951080,61.453362 294.944672,61.895885 294.938293,62.338413 
	C294.262360,62.567490 293.591644,62.980209 292.909821,62.999451 
	C244.471024,64.366203 196.036194,65.964127 147.588379,66.856483 
	C135.356567,67.081779 123.065048,65.225067 110.832924,64.004738 
	C92.211662,62.146992 73.995590,64.676056 55.826900,68.355743 
	C44.586857,70.632195 33.295563,72.657562 22.015608,74.732185 
	C20.787634,74.958031 19.482187,74.762650 18.074047,73.923233 
	C40.596722,69.422539 62.724152,63.074890 86.192749,61.051979 
z"/>
<path fill="#21ABF4" opacity="1.000000" stroke="none" 
	d="
M78.116318,41.061153 
	C95.670815,42.432468 112.718452,44.304813 129.815277,45.053257 
	C147.582718,45.831059 165.421539,46.179722 183.186356,45.535557 
	C210.311401,44.551998 237.400208,42.563091 264.503265,40.981853 
	C273.148743,40.477463 281.789612,39.893520 290.435150,39.390007 
	C292.235779,39.285137 294.047729,39.374775 295.854462,39.374775 
	C295.910309,39.910950 295.966156,40.447124 296.022003,40.983295 
	C295.114166,41.316624 294.219269,41.899609 293.296631,41.947487 
	C246.390640,44.381390 199.500000,47.305824 152.564056,48.856800 
	C137.222260,49.363758 121.705208,46.721951 106.370064,44.734875 
	C86.804764,42.199661 67.489616,43.999157 48.140347,46.510979 
	C39.392956,47.646523 30.651642,48.833771 21.892691,49.872017 
	C19.688648,50.133274 17.427307,49.911118 15.192297,49.911118 
	C15.135975,49.256859 15.079654,48.602600 15.023332,47.948341 
	C35.892574,45.655014 56.761814,43.361691 78.116318,41.061153 
z"/>
<path fill="#1EB4F5" opacity="1.000000" stroke="none" 
	d="
M275.158386,21.218555 
	C282.613190,20.237700 289.619476,19.306629 296.625732,18.375559 
	C296.771179,18.832554 296.916595,19.289551 297.062012,19.746546 
	C296.112549,20.165058 295.192169,20.857937 294.209412,20.962027 
	C268.559357,23.678766 242.937469,26.757269 217.235992,28.860308 
	C198.326309,30.407604 179.303787,31.437643 160.345184,31.258099 
	C144.595459,31.108942 128.762787,29.585220 113.151413,27.369917 
	C90.609070,24.171089 68.079323,23.311033 45.398632,24.454165 
	C35.416653,24.957268 25.422750,25.232529 15.432163,25.544010 
	C14.283850,25.579813 13.122022,25.182137 11.966459,24.985445 
	C11.947275,24.573420 11.928091,24.161394 11.908906,23.749367 
	C12.839158,23.478374 13.766090,22.982996 14.700146,22.969177 
	C38.510521,22.616983 62.339432,21.634621 86.126045,22.256531 
	C100.696846,22.637489 115.166039,25.966858 129.748596,27.102077 
	C144.155548,28.223625 158.667999,28.984779 173.097794,28.586437 
	C195.063904,27.980049 217.011337,26.421392 238.941635,24.904737 
	C250.891037,24.078341 262.788788,22.504873 275.158386,21.218555 
z"/>
<path fill="#2CA1F2" opacity="1.000000" stroke="none" 
	d="
M174.798691,75.648941 
	C162.187866,76.128876 150.052048,77.001465 137.923889,76.905510 
	C129.327301,76.837494 120.732597,75.538406 112.157318,74.603043 
	C110.427650,74.414375 108.789101,73.390327 107.270515,71.955711 
	C138.714157,77.664970 170.068039,71.959274 201.388519,72.067970 
	C201.487228,72.567474 201.585938,73.066971 201.684647,73.566467 
	C200.030807,73.992867 198.392197,74.707214 196.720459,74.795685 
	C189.577957,75.173676 182.425674,75.366882 174.798691,75.648941 
z"/>
<path fill="#2857E5" opacity="1.000000" stroke="none" 
	d="
M117.048904,212.068878 
	C131.140564,214.012177 144.752213,216.498413 158.475983,217.657776 
	C172.167618,218.814438 185.971573,218.641464 200.363556,219.070419 
	C193.766617,224.415573 116.471535,217.999847 109.345619,211.468826 
	C112.288506,211.695999 114.453278,211.863113 117.048904,212.068878 
z"/>
<path fill="#279AF1" opacity="1.000000" stroke="none" 
	d="
M143.002090,84.088150 
	C160.638931,83.690033 177.776215,83.291878 195.444702,82.881386 
	C189.498993,88.172958 120.482277,88.122757 113.650307,82.828827 
	C123.669678,83.266129 133.086105,83.677124 143.002090,84.088150 
z"/>
<path fill="#2393EF" opacity="1.000000" stroke="none" 
	d="
M184.928513,92.050339 
	C186.789398,92.016151 188.207001,92.016151 189.928848,92.016151 
	C184.911636,97.531807 127.015663,99.238518 122.074203,95.163345 
	C142.284454,94.166344 163.384842,93.125435 184.928513,92.050339 
z"/>
<path fill="#398DEE" opacity="1.000000" stroke="none" 
	d="
M258.030609,130.049042 
	C271.620148,130.049576 284.714569,130.049576 297.808960,130.049576 
	C297.963104,130.758163 298.117218,131.466736 298.271362,132.175323 
	C297.413818,132.689346 296.549744,133.661652 295.699738,133.649506 
	C279.754181,133.421753 263.810150,133.082947 247.866898,132.719238 
	C247.523010,132.711380 247.192062,132.137314 245.570892,130.646301 
	C250.380615,130.405991 253.958038,130.227249 258.030609,130.049042 
z"/>
<path fill="#2963E7" opacity="1.000000" stroke="none" 
	d="
M18.644594,199.504776 
	C16.039560,199.717407 13.861448,199.846619 11.683336,199.975830 
	C11.627198,199.418457 11.571060,198.861084 11.514921,198.303696 
	C28.525742,195.214920 45.536564,192.126160 62.547382,189.037384 
	C62.685787,189.690842 62.824192,190.344299 62.962597,190.997757 
	C48.510036,194.600723 33.885559,197.434891 18.644594,199.504776 
z"/>
<path fill="#2E83EC" opacity="1.000000" stroke="none" 
	d="
M40.999977,138.977158 
	C30.879393,138.820511 21.243195,138.880615 11.634612,138.566132 
	C11.682972,138.014099 11.731332,137.462082 11.779692,136.910065 
	C28.750193,136.910065 45.720695,136.910065 62.691196,136.910065 
	C62.706066,137.601059 62.720936,138.292053 62.735809,138.983047 
	C55.657173,138.983047 48.578541,138.983047 40.999977,138.977158 
z"/>
<path fill="#3082EC" opacity="1.000000" stroke="none" 
	d="
M289.865784,143.019928 
	C292.724152,143.253708 295.115601,143.473953 297.507080,143.694214 
	C297.450531,144.141998 297.394012,144.589783 297.337494,145.037567 
	C280.552887,145.037567 263.768311,145.037567 246.983704,145.037567 
	C246.883774,144.415771 246.783844,143.793976 246.683914,143.172180 
	C248.316635,142.817444 249.954697,142.133759 251.581223,142.160187 
	C264.188385,142.365005 276.793304,142.706940 289.865784,143.019928 
z"/>
<path fill="#2570E9" opacity="1.000000" stroke="none" 
	d="
M62.242165,163.887558 
	C62.129028,164.757233 61.731609,165.972122 61.255287,166.003906 
	C45.000912,167.087875 28.739214,168.062378 12.476745,169.021652 
	C12.239127,169.035675 11.978438,168.658615 11.603460,167.040878 
	C28.376005,165.920975 45.148552,164.801056 62.242165,163.887558 
z"/>
<path fill="#2D60E6" opacity="1.000000" stroke="none" 
	d="
M47.382111,205.211304 
	C35.247387,207.172119 23.541887,209.062378 11.836388,210.952637 
	C11.718229,210.189270 11.600070,209.425888 11.481911,208.662506 
	C28.495583,205.866257 45.509254,203.070007 62.522926,200.273758 
	C62.652306,200.849792 62.781685,201.425812 62.911064,202.001846 
	C58.234646,204.345963 52.835724,204.062271 47.382111,205.211304 
z"/>
<path fill="#2F5CE6" opacity="1.000000" stroke="none" 
	d="
M55.999893,215.992981 
	C40.993279,217.810837 26.416933,219.595551 11.840588,221.380249 
	C11.749936,220.620102 11.659284,219.859940 11.568632,219.099792 
	C28.585649,216.944733 45.602669,214.789688 62.619686,212.634628 
	C62.745003,213.248245 62.870319,213.861847 62.995636,214.475449 
	C60.807144,214.970245 58.618656,215.465042 55.999893,215.992981 
z"/>
<path fill="#2590EF" opacity="1.000000" stroke="none" 
	d="
M272.156555,100.974586 
	C280.725861,101.983604 288.838043,102.973900 296.950256,103.964195 
	C296.875214,104.672020 296.800140,105.379837 296.725098,106.087662 
	C280.103882,104.488091 263.482666,102.888519 246.861450,101.288956 
	C246.877197,100.760277 246.892929,100.231598 246.908676,99.702919 
	C255.184341,98.586388 263.437256,100.357704 272.156555,100.974586 
z"/>
<path fill="#3B64E7" opacity="1.000000" stroke="none" 
	d="
M254.111542,219.055023 
	C268.050354,219.120682 281.503815,219.186310 294.957275,219.251953 
	C294.942932,219.915375 294.928558,220.578812 294.914185,221.242233 
	C278.941986,221.242233 262.969788,221.242233 246.997589,221.242233 
	C246.959351,220.684738 246.921097,220.127243 246.882843,219.569748 
	C249.130615,219.398178 251.378403,219.226593 254.111542,219.055023 
z"/>
<path fill="#2C6AE8" opacity="1.000000" stroke="none" 
	d="
M52.137840,184.040863 
	C38.408646,186.131500 25.116571,188.188782 11.824499,190.246048 
	C11.707462,189.482590 11.590425,188.719116 11.473387,187.955658 
	C28.486647,185.246857 45.499905,182.538040 62.513165,179.829239 
	C62.665543,180.513367 62.817924,181.197495 62.970303,181.881622 
	C59.505188,182.590240 56.040073,183.298859 52.137840,184.040863 
z"/>
<path fill="#228BEE" opacity="1.000000" stroke="none" 
	d="
M251.103088,110.205208 
	C249.339554,110.061981 248.010010,109.919144 245.673111,109.668083 
	C251.813675,106.380966 291.298584,109.364883 297.511353,113.782921 
	C282.186584,112.590477 266.861847,111.398033 251.103088,110.205208 
z"/>
<path fill="#2D8BEE" opacity="1.000000" stroke="none" 
	d="
M276.193146,121.705009 
	C266.136536,121.678001 256.554626,121.678001 246.972702,121.678001 
	C246.816879,121.120171 246.661057,120.562347 246.505234,120.004517 
	C247.193268,119.449852 247.902191,118.387527 248.566299,118.414841 
	C264.636810,119.075638 280.703003,119.844025 296.766968,120.652237 
	C297.233490,120.675713 297.667664,121.342140 297.913330,122.743988 
	C290.831512,122.406662 283.749664,122.069336 276.193146,121.705009 
z"/>
<path fill="#1D8BEE" opacity="1.000000" stroke="none" 
	d="
M129.933548,106.905945 
	C128.859970,106.347305 128.185822,105.806351 128.160446,105.785980 
	C146.582565,104.503311 165.320648,103.198639 184.058731,101.893959 
	C166.618073,108.043259 148.459167,107.324318 129.933548,106.905945 
z"/>
<path fill="#248DEE" opacity="1.000000" stroke="none" 
	d="
M37.528927,109.424042 
	C30.068289,110.819450 23.016912,112.096077 15.965536,113.372704 
	C15.821614,112.595161 15.677692,111.817627 15.533771,111.040085 
	C31.140594,107.975395 46.747421,104.910706 62.354244,101.846024 
	C62.516380,102.565987 62.678513,103.285957 62.840649,104.005928 
	C58.943027,104.922592 55.059959,105.907928 51.143917,106.737640 
	C46.757580,107.667007 42.341389,108.455482 37.528927,109.424042 
z"/>
<path fill="#296DE9" opacity="1.000000" stroke="none" 
	d="
M58.182480,174.249969 
	C42.408451,176.151718 27.116310,178.735992 11.671366,179.614975 
	C11.603053,178.933319 11.534741,178.251663 11.466429,177.570007 
	C28.493385,175.543839 45.520344,173.517670 62.547302,171.491501 
	C62.655945,172.149384 62.764587,172.807281 62.873234,173.465179 
	C61.448269,173.708633 60.023304,173.952087 58.182480,174.249969 
z"/>
<path fill="#27A1F2" opacity="1.000000" stroke="none" 
	d="
M283.720276,70.427505 
	C287.660431,70.693398 291.133270,70.933723 294.606079,71.174042 
	C294.563690,71.658836 294.521301,72.143623 294.478912,72.628410 
	C278.531006,72.628410 262.583069,72.628410 246.635162,72.628410 
	C246.615952,72.026878 246.596756,71.425339 246.577545,70.823807 
	C258.766113,69.885803 271.022339,70.423820 283.720276,70.427505 
z"/>
<path fill="#2A77EA" opacity="1.000000" stroke="none" 
	d="
M285.813904,156.292252 
	C289.710632,156.579803 293.133087,156.859512 296.555542,157.139236 
	C296.535675,157.469330 296.515778,157.799423 296.495911,158.129517 
	C279.977936,158.129517 263.459961,158.129517 246.942001,158.129517 
	C246.935211,157.514481 246.928406,156.899460 246.921616,156.284424 
	C259.727631,156.284424 272.533630,156.284424 285.813904,156.292252 
z"/>
<path fill="#2095F0" opacity="1.000000" stroke="none" 
	d="
M269.599121,89.187668 
	C261.631012,88.792336 254.130463,88.427643 246.629883,88.062950 
	C246.681274,87.378578 246.732666,86.694206 246.784058,86.009834 
	C263.003113,85.419411 279.068451,87.319313 295.137512,89.158569 
	C295.096191,89.914490 295.054871,90.670410 295.013519,91.426331 
	C286.697906,90.690323 278.382263,89.954315 269.599121,89.187668 
z"/>
<path fill="#2378EB" opacity="1.000000" stroke="none" 
	d="
M21.066483,148.970367 
	C17.574179,148.966904 14.569180,148.966904 11.564178,148.966904 
	C11.590807,148.148239 11.617435,147.329590 11.644064,146.510925 
	C28.633932,145.485031 45.629143,147.432953 62.619953,146.930817 
	C62.656380,147.678894 62.692810,148.426987 62.729237,149.175064 
	C58.487255,149.175064 54.245205,149.189957 50.003304,149.171143 
	C45.178455,149.149750 40.353764,149.094971 35.528961,149.060776 
	C30.870600,149.027771 26.212179,149.002502 21.066483,148.970367 
z"/>
<path fill="#2282EC" opacity="1.000000" stroke="none" 
	d="
M41.358734,125.386627 
	C48.781448,125.345566 55.734737,125.345566 62.688030,125.345566 
	C62.696308,125.764275 62.704590,126.182983 62.712872,126.601692 
	C45.980766,127.302811 29.320650,129.579498 12.538478,129.184830 
	C12.498613,128.511581 12.458750,127.838333 12.418885,127.165085 
	C21.909027,126.585953 31.399168,126.006813 41.358734,125.386627 
z"/>
<path fill="#2A96F0" opacity="1.000000" stroke="none" 
	d="
M248.019516,94.676941 
	C247.233139,92.208160 247.244980,92.040916 249.861191,92.226036 
	C259.132324,92.882042 268.400177,93.600632 277.658112,94.421570 
	C282.447571,94.846275 287.219818,95.489822 291.986267,96.134659 
	C293.408752,96.327087 294.785309,96.858612 296.182922,97.234764 
	C296.090790,97.670547 295.998657,98.106331 295.906494,98.542114 
	C280.075500,97.277184 264.244507,96.012253 248.019516,94.676941 
z"/>
<path fill="#278AEE" opacity="1.000000" stroke="none" 
	d="
M52.640015,116.540070 
	C39.529190,118.167885 26.860399,119.720528 14.191608,121.273170 
	C14.100213,120.488434 14.008817,119.703697 13.917420,118.918961 
	C30.127203,116.891907 46.336987,114.864861 62.546768,112.837807 
	C62.681461,113.598366 62.816151,114.358925 62.950844,115.119484 
	C59.661243,115.567947 56.371647,116.016418 52.640015,116.540070 
z"/>
<path fill="#3577EA" opacity="1.000000" stroke="none" 
	d="
M284.313782,170.792419 
	C288.351776,170.809647 291.924072,170.809647 296.642609,170.809647 
	C292.588440,173.888077 250.207596,173.446472 246.443283,170.775208 
	C259.292603,170.775208 271.570343,170.775208 284.313782,170.792419 
z"/>
<path fill="#2894EF" opacity="1.000000" stroke="none" 
	d="
M48.187405,98.072601 
	C37.705959,100.540787 27.634151,102.939972 17.562346,105.339157 
	C17.384638,104.576950 17.206932,103.814751 17.029226,103.052551 
	C32.158127,99.395134 47.287029,95.737709 62.415932,92.080292 
	C62.634861,92.835564 62.853794,93.590843 63.072723,94.346115 
	C58.247498,95.565269 53.422268,96.784431 48.187405,98.072601 
z"/>
<path fill="#2798F0" opacity="1.000000" stroke="none" 
	d="
M26.180546,92.222801 
	C38.525154,89.064728 50.475670,86.015854 63.073929,82.801727 
	C60.857510,86.844986 22.899317,96.680809 17.032297,94.661850 
	C20.693083,93.687561 23.239769,93.009781 26.180546,92.222801 
z"/>
<path fill="#2760E6" opacity="1.000000" stroke="none" 
	d="
M279.990570,199.976562 
	C268.738098,200.097244 257.983246,200.215591 247.228088,200.290573 
	C247.161621,200.291061 247.090958,199.687912 246.809341,198.371033 
	C262.614319,198.371033 278.219452,198.371033 293.824615,198.371033 
	C293.856720,198.904861 293.888824,199.438675 293.920898,199.972504 
	C289.443329,199.972504 284.965729,199.972504 279.990570,199.976562 
z"/>
<path fill="#3363E7" opacity="1.000000" stroke="none" 
	d="
M156.443375,210.610992 
	C153.387863,210.273819 150.784409,209.984894 147.224091,209.589767 
	C156.649170,207.645203 197.382233,208.939621 199.714767,212.233765 
	C185.441650,211.708923 171.168549,211.184067 156.443375,210.610992 
z"/>
<path fill="#3190EF" opacity="1.000000" stroke="none" 
	d="
M165.551849,113.825867 
	C169.824036,113.014008 173.662949,112.265991 178.720093,111.280602 
	C172.980698,116.908974 139.552139,120.110672 133.614212,115.954109 
	C144.578262,115.235664 154.848419,114.562691 165.551849,113.825867 
z"/>
<path fill="#1895F0" opacity="1.000000" stroke="none" 
	d="
M274.364868,82.466751 
	C264.911804,82.450974 255.928101,82.450974 246.944382,82.450974 
	C246.957901,81.662331 246.971420,80.873688 246.984940,80.085052 
	C262.882202,79.668739 278.776642,79.529541 294.656769,80.799629 
	C294.660187,81.360596 294.663605,81.921562 294.667053,82.482529 
	C288.056091,82.482529 281.445160,82.482529 274.364868,82.466751 
z"/>
<path fill="#239AF1" opacity="1.000000" stroke="none" 
	d="
M40.136063,82.097961 
	C32.843304,83.648216 25.961536,85.131882 19.079771,86.615547 
	C18.924694,85.893982 18.769615,85.172417 18.614538,84.450844 
	C33.220299,81.063080 47.826061,77.675308 62.431824,74.287537 
	C62.609734,74.936623 62.787640,75.585709 62.965549,76.234802 
	C55.492718,78.166992 48.019890,80.099182 40.136063,82.097961 
z"/>
<path fill="#1268E8" opacity="1.000000" stroke="none" 
	d="
M20.109554,159.023834 
	C17.014521,159.021622 14.401389,159.021622 11.788259,159.021622 
	C11.664303,158.631332 11.540347,158.241043 11.416390,157.850754 
	C12.201315,157.385361 12.989479,156.509018 13.770685,156.515167 
	C29.743746,156.641129 45.716095,156.862823 61.687935,157.107605 
	C62.043232,157.113052 62.391003,157.610062 62.679382,159.026031 
	C48.650074,159.026031 34.620766,159.026031 20.109554,159.023834 
z"/>
<path fill="#1E53E4" opacity="1.000000" stroke="none" 
	d="
M286.836700,210.927094 
	C273.427277,211.025574 260.495270,211.126221 247.563065,211.164551 
	C247.369598,211.165131 247.173828,210.392166 246.608292,209.195557 
	C262.621948,209.195557 278.161285,209.195557 293.700623,209.195557 
	C293.733429,209.638443 293.766266,210.081329 293.799072,210.524200 
	C291.637421,210.657425 289.475739,210.790634 286.836700,210.927094 
z"/>
<path fill="#1E60E7" opacity="1.000000" stroke="none" 
	d="
M258.897583,187.814301 
	C254.628098,187.834579 250.839050,187.834579 247.050003,187.834579 
	C247.052872,187.191422 247.055740,186.548248 247.058609,185.905090 
	C262.849487,185.905090 278.640381,185.905090 294.431274,185.905090 
	C294.459290,186.141006 294.487274,186.376923 294.515289,186.612839 
	C282.802856,187.006561 271.090454,187.400284 258.897583,187.814301 
z"/>
<path fill="#285FE6" opacity="1.000000" stroke="none" 
	d="
M120.089218,199.938049 
	C126.698929,201.768265 132.900787,203.536392 139.102631,205.304520 
	C138.914551,205.949326 138.726456,206.594147 138.538376,207.238968 
	C128.940048,204.857254 119.341743,202.475525 109.743423,200.093811 
	C109.894409,199.408066 110.045395,198.722321 110.196381,198.036591 
	C113.358040,198.649719 116.519699,199.262848 120.089218,199.938049 
z"/>
<path fill="#2081EC" opacity="1.000000" stroke="none" 
	d="
M146.759125,128.333542 
	C144.553391,128.218750 142.779953,128.067657 141.006531,127.916565 
	C141.015762,127.463875 141.024994,127.011185 141.034210,126.558495 
	C150.963745,125.494125 160.893280,124.429749 170.822815,123.365379 
	C170.906128,123.796227 170.989426,124.227081 171.072739,124.657928 
	C163.502625,127.815910 155.308319,127.863655 146.759125,128.333542 
z"/>
<path fill="#2E64E7" opacity="1.000000" stroke="none" 
	d="
M177.427612,201.535889 
	C175.941666,201.250443 174.909210,200.994873 173.876755,200.739304 
	C173.903687,200.121109 173.930618,199.502914 173.957550,198.884720 
	C182.487900,198.861191 191.017563,198.780777 200.188507,199.434967 
	C197.300171,202.280533 194.549286,202.472702 177.427612,201.535889 
z"/>
<path fill="#2966E7" opacity="1.000000" stroke="none" 
	d="
M116.105888,187.930969 
	C121.372551,190.046341 127.618881,188.886597 132.326248,194.959564 
	C123.842918,192.635071 116.766808,190.696167 109.690689,188.757263 
	C109.857109,188.113968 110.023521,187.470688 110.189941,186.827408 
	C112.024361,187.173004 113.858780,187.518616 116.105888,187.930969 
z"/>
<path fill="#336DE9" opacity="1.000000" stroke="none" 
	d="
M188.064224,187.935333 
	C192.213303,187.935318 195.882874,187.935318 199.552444,187.935318 
	C199.538300,188.539566 199.524155,189.143829 199.510010,189.748077 
	C193.033875,189.748077 186.557724,189.748077 180.081589,189.748077 
	C180.040115,189.293259 179.998627,188.838425 179.957153,188.383606 
	C182.499664,188.234177 185.042191,188.084763 188.064224,187.935333 
z"/>
<path fill="#267FEC" opacity="1.000000" stroke="none" 
	d="
M161.752502,135.025665 
	C162.680115,135.495132 163.667206,136.347916 163.602020,136.437805 
	C162.130615,138.467331 149.600723,138.906418 146.421722,136.527420 
	C151.820969,135.993378 156.571396,135.523514 161.752502,135.025665 
z"/>
<path fill="#3472E9" opacity="1.000000" stroke="none" 
	d="
M111.956253,178.530060 
	C116.586067,179.799667 121.571815,178.927277 126.017479,183.896515 
	C120.239372,182.717087 115.836899,181.842499 111.468727,180.821167 
	C111.324333,180.787430 111.528137,179.264511 111.956253,178.530060 
z"/>
<path fill="#2A6EE9" opacity="1.000000" stroke="none" 
	d="
M187.598190,176.024689 
	C191.578827,174.929474 195.353867,174.132919 199.128891,173.336380 
	C199.238388,174.051575 199.347900,174.766785 199.457397,175.481979 
	C195.557571,176.611816 191.714340,178.136353 187.598190,176.024689 
z"/>
<path fill="#3074EA" opacity="1.000000" stroke="none" 
	d="
M116.226288,171.540192 
	C117.543762,172.241104 118.465332,172.831177 119.386902,173.421234 
	C119.205078,173.831635 119.023262,174.242035 118.841446,174.652435 
	C115.822807,174.139740 112.804176,173.627045 109.785538,173.114349 
	C109.862183,172.444412 109.938835,171.774475 110.015480,171.104538 
	C111.953781,171.212799 113.892082,171.321060 116.226288,171.540192 
z"/>
</svg>